<?xml version="1.0" encoding="UTF-8" standalone="no"?>
<svg
   xmlns:dc="http://purl.org/dc/elements/1.1/"
   xmlns:cc="http://creativecommons.org/ns#"
   xmlns:rdf="http://www.w3.org/1999/02/22-rdf-syntax-ns#"
   xmlns:svg="http://www.w3.org/2000/svg"
   xmlns="http://www.w3.org/2000/svg"
   id="svg80"
   version="1.1"
   viewBox="0 0 43.207138 58.865829"
   height="58.865829mm"
   width="43.207138mm">
  <defs
     id="defs74" />
  <metadata
     id="metadata77">
    <rdf:RDF>
      <cc:Work
         rdf:about="">
        <dc:format>image/svg+xml</dc:format>
        <dc:type
           rdf:resource="http://purl.org/dc/dcmitype/StillImage" />
        <dc:title></dc:title>
      </cc:Work>
    </rdf:RDF>
  </metadata>
  <g
     transform="translate(-84.229765,-118.73375)"
     id="layer1">
    <path
       style="fill:#821c62;fill-opacity:1;stroke-width:0.174747"
       d="m 104.2185,176.27882 c -7.26174,-8.74097 -14.108073,-18.01878 -18.727553,-28.46129 -2.178586,-6.12194 -1.516184,-13.23202 1.843672,-18.80561 2.986738,-4.72035 7.832328,-8.43849 13.343611,-9.69078 4.98388,-0.99802 10.13324,-0.84047 14.33237,1.38067 3.67244,1.7777 6.9355,4.53579 9.07073,8.00146 3.71727,5.5958 4.2762,13.03796 2.02312,19.30458 -3.78656,8.59004 -9.2145,16.33367 -14.93775,23.72728 -1.71062,1.9545 -3.09656,4.27225 -5.18227,5.85224 -0.73357,0.13625 -1.27454,-0.90403 -1.76593,-1.30855 z m 3.61008,-24.77701 c 4.52674,-0.82737 8.4807,-4.65702 9.17766,-9.29936 1.22627,-6.09453 -3.57584,-12.48394 -9.74301,-13.12791 -2.46931,-0.31695 -5.04275,0.23502 -7.18996,1.50215 -2.373918,1.47458 -4.34651,3.74012 -5.067876,6.43182 -1.79746,5.24893 1.110039,11.32432 6.053226,13.63366 2.12405,0.87252 4.47842,1.44752 6.76996,0.85964 z"
       id="path5775-8" />
  </g>
</svg>
